<svg xmlns="http://www.w3.org/2000/svg" width="1920" height="420" viewBox="0 0 1920 420" preserveAspectRatio="xMidYMid slice">
  <defs>
    <linearGradient id="sky" x1="0%" y1="0%" x2="0%" y2="100%">
      <stop offset="0%" stop-color="#0c1220"/>
      <stop offset="45%" stop-color="#1a1528"/>
      <stop offset="100%" stop-color="#05080c"/>
    </linearGradient>
    <linearGradient id="glow" x1="50%" y1="0%" x2="50%" y2="100%">
      <stop offset="0%" stop-color="#c9a227" stop-opacity="0.12"/>
      <stop offset="100%" stop-color="#000" stop-opacity="0"/>
    </linearGradient>
  </defs>
  <rect width="100%" height="100%" fill="url(#sky)"/>
  <rect width="100%" height="100%" fill="url(#glow)"/>
  <g opacity="0.85" fill="#0a0d14">
    <path d="M0 280 L40 240 L40 200 L70 200 L70 230 L100 200 L130 230 L130 180 L160 150 L190 180 L190 220 L220 190 L250 220 L250 280 Z"/>
    <path d="M200 280 L250 220 L250 170 L280 140 L310 170 L310 210 L340 180 L370 210 L370 250 L400 220 L430 250 L430 280 Z"/>
    <path d="M380 280 L420 230 L420 160 L460 120 L500 160 L500 200 L540 170 L580 200 L580 240 L620 200 L660 240 L660 280 Z"/>
    <path d="M620 280 L680 210 L680 150 L720 110 L760 150 L760 190 L800 160 L840 190 L840 230 L880 200 L920 230 L920 280 Z"/>
    <path d="M860 280 L920 200 L920 130 L960 90 L1000 130 L1000 180 L1040 150 L1080 180 L1080 220 L1120 190 L1160 220 L1160 280 Z"/>
    <path d="M1100 280 L1160 210 L1160 140 L1200 100 L1240 140 L1240 190 L1280 160 L1320 190 L1320 230 L1360 200 L1400 230 L1400 280 Z"/>
    <path d="M1340 280 L1400 200 L1400 120 L1450 75 L1500 120 L1500 170 L1540 140 L1580 170 L1580 210 L1620 180 L1660 210 L1660 280 Z"/>
    <path d="M1580 280 L1640 210 L1640 130 L1690 85 L1740 130 L1740 180 L1780 150 L1820 180 L1820 220 L1860 190 L1920 230 L1920 280 Z"/>
  </g>
  <g opacity="0.22" fill="#1e293b">
    <rect x="0" y="260" width="1920" height="160"/>
  </g>
  <g stroke="#c9a227" stroke-opacity="0.25" stroke-width="1" fill="none">
    <path d="M0 295 Q480 270 960 285 T1920 290"/>
  </g>
</svg>
