<svg xmlns="http://www.w3.org/2000/svg" viewBox="0 0 120 120" fill="none">
  <rect width="120" height="120" rx="12" fill="#1a1510"/>
  <!-- Arka çevre duvarı / sundurma -->
  <path fill="#3d342c" d="M14 36h92v10H14z"/>
  <path fill="#4a3f35" d="M18 32h84v8H18z"/>
  <rect x="24" y="26" width="8" height="14" rx="1" fill="#5c4a3a"/>
  <rect x="56" y="26" width="8" height="14" rx="1" fill="#5c4a3a"/>
  <rect x="88" y="26" width="8" height="14" rx="1" fill="#5c4a3a"/>
  <!-- Meydan döşemesi (perspektif) -->
  <path fill="#6b5b4a" d="M22 46l76 2 10 52H12L22 46z"/>
  <path stroke="#5a4a3c" stroke-width="1" opacity=".45" d="M30 56h60M26 68h68M22 82h76M18 96h84"/>
  <!-- Merkez taş çeşme / kuyu -->
  <ellipse cx="60" cy="78" rx="22" ry="8" fill="#524638"/>
  <ellipse cx="60" cy="74" rx="18" ry="6" fill="#3d342c"/>
  <ellipse cx="60" cy="72" rx="12" ry="4" fill="#2a4a5c" opacity=".85"/>
  <rect x="56" y="48" width="8" height="26" rx="1" fill="#7d6b5a"/>
  <path fill="#8b7355" d="M52 46h16l-2-8H54l-2 8z"/>
  <circle cx="60" cy="42" r="5" fill="#c4a574"/>
  <path stroke="#d4a574" stroke-width="1.5" stroke-linecap="round" d="M60 37v-6"/>
  <!-- Yan ağaç (meydan havası) -->
  <path fill="#3d2914" d="M94 62v18h6V62h-6z"/>
  <circle cx="97" cy="54" r="12" fill="#365314"/>
  <circle cx="91" cy="58" r="8" fill="#4d7c0f"/>
  <circle cx="102" cy="58" r="7" fill="#4d7c0f"/>
</svg>
