<svg xmlns="http://www.w3.org/2000/svg" viewBox="0 0 520 180">
  <defs>
    <linearGradient id="bg" x1="0" x2="1" y1="0" y2="1">
      <stop offset="0" stop-color="#0b1220"/>
      <stop offset="0.55" stop-color="#102a45"/>
      <stop offset="1" stop-color="#1a4b3a"/>
    </linearGradient>
    <linearGradient id="shine" x1="0" x2="1" y1="0" y2="0">
      <stop offset="0" stop-color="rgba(255,255,255,0)"/>
      <stop offset="0.5" stop-color="rgba(255,255,255,0.10)"/>
      <stop offset="1" stop-color="rgba(255,255,255,0)"/>
    </linearGradient>
  </defs>
  <rect width="520" height="180" fill="url(#bg)"/>
  <path d="M0 40 C120 10, 220 90, 520 20 L520 0 L0 0 Z" fill="rgba(251,191,36,0.10)"/>
  <path d="M0 180 L520 180 L520 145 C360 120, 200 210, 0 140 Z" fill="rgba(14,165,233,0.10)"/>
  <rect x="0" y="0" width="520" height="180" fill="url(#shine)" opacity="0.7"/>
  <!-- Simple emblem (shield + star) -->
  <g transform="translate(78 38)">
    <path d="M70 0 L120 18 V70 C120 106 96 130 70 142 C44 130 20 106 20 70 V18 Z"
          fill="rgba(245,158,11,0.35)" stroke="rgba(251,191,36,0.45)" stroke-width="2"/>
    <path d="M70 28 L78 46 L98 48 L82 60 L87 80 L70 70 L53 80 L58 60 L42 48 L62 46 Z"
          fill="rgba(251,191,36,0.8)"/>
  </g>
  <!-- Accent stripes -->
  <rect x="0" y="0" width="10" height="180" fill="rgba(251,191,36,0.35)"/>
  <rect x="10" y="0" width="6" height="180" fill="rgba(14,165,233,0.25)"/>
</svg>

